PathFileType	4	(X/Y/Z)	regression/subject01/trials/walk2/markers.trc
DataRate	CameraRate	NumFrames	NumMarkers	Units	OrigDataRate	OrigDataStartFrame	OrigNumFrames
200.00000000000426	200.00000000000426	4	64	m	200.00000000000426	83	223
Frame#	Time	CLAV			C7			RACR			RASH			RPSH			RLEL			RMEL			RUA1			RUA2			RUA3			RFAsuperior			RFAradius			RFAulna			RASI			RPSI			RCAL			RTOE			RMT5			RTH1			RTH2			RTH3			RTB1			RTB2			RTB3			RLFC			RMFC			RLMAL			RMMAL			RHJC			RKJC			REJC			RAJC			RSJC			LACR			LASH			LPSH			LLEL			LMEL			LUA1			LUA2			LUA3			LFAsuperior			LFAradius			LFAulna			LASI			LPSI			LCAL			LTOE			LMT5			LTH1			LTH2			LTH3			LTB1			LTB2			LTB3			LLFC			LMFC			LLMAL			LMMAL			LHJC			LKJC			LEJC			LAJC			LSJC			
		X1	Y1	Z1	X2	Y2	Z2	X3	Y3	Z3	X4	Y4	Z4	X5	Y5	Z5	X6	Y6	Z6	X7	Y7	Z7	X8	Y8	Z8	X9	Y9	Z9	X10	Y10	Z10	X11	Y11	Z11	X12	Y12	Z12	X13	Y13	Z13	X14	Y14	Z14	X15	Y15	Z15	X16	Y16	Z16	X17	Y17	Z17	X18	Y18	Z18	X19	Y19	Z19	X20	Y20	Z20	X21	Y21	Z21	X22	Y22	Z22	X23	Y23	Z23	X24	Y24	Z24	X25	Y25	Z25	X26	Y26	Z26	X27	Y27	Z27	X28	Y28	Z28	X29	Y29	Z29	X30	Y30	Z30	X31	Y31	Z31	X32	Y32	Z32	X33	Y33	Z33	X34	Y34	Z34	X35	Y35	Z35	X36	Y36	Z36	X37	Y37	Z37	X38	Y38	Z38	X39	Y39	Z39	X40	Y40	Z40	X41	Y41	Z41	X42	Y42	Z42	X43	Y43	Z43	X44	Y44	Z44	X45	Y45	Z45	X46	Y46	Z46	X47	Y47	Z47	X48	Y48	Z48	X49	Y49	Z49	X50	Y50	Z50	X51	Y51	Z51	X52	Y52	Z52	X53	Y53	Z53	X54	Y54	Z54	X55	Y55	Z55	X56	Y56	Z56	X57	Y57	Z57	X58	Y58	Z58	X59	Y59	Z59	X60	Y60	Z60	X61	Y61	Z61	X62	Y62	Z62	X63	Y63	Z63	X64	Y64	Z64	

84	3.795	1.493545116644456	1.465150124260798	-0.4972175905195504	1.385922692543794	1.54406390552568	-0.4717912080577721	1.490769417375499	1.509161022497004	-0.3422963576106262	1.538761311535199	1.444575812546029	-0.3084663855694108	1.443245547613364	1.465883254692353	-0.2885468323703733	1.420292376498137	1.135647415610047	-0.1961317252427573	1.410585891531203	1.114308157899312	-0.2825196983342416	1.476889326713661	1.401032140842232	-0.2682813187736611	1.430002615631007	1.227939353103097	-0.235640425931303	1.485472537394943	1.300419513445399	-0.2466193025502432	1.491887103239862	1.070652782665312	-0.2418126542193534	1.6324414816053	0.9720760977714438	-0.235440318904183	1.593189808287672	0.9246300233202905	-0.2254525215635568	1.47829355718131	1.037094965519536	-0.3595275912617825	1.317628293748852	1.064840346691065	-0.4455896857782514	1.183727594546822	0.05308179615551049	-0.4386449301853993	1.43834262902244	0.04941511131916963	-0.4595508866715072	1.367677445423085	0.0141990151998749	-0.3680500402079386	1.415905080471664	0.7783802743175302	-0.3417766349746893	1.488282487410239	0.6930971243828543	-0.4101146636409205	1.393834969711651	0.6279405005911233	-0.350522822150987	1.33208595312853	0.3387103136029861	-0.3737763645509893	1.3566578827571	0.2438500080015952	-0.4386667455047321	1.310171916978776	0.1713035330047385	-0.3728896973327769	1.37310577863949	0.5242922806412302	-0.3648941254999552	1.375163680052557	0.5271599574636183	-0.4786077584116533	1.265498012254986	0.0654840434712653	-0.3788218925819283	1.276446143712916	0.06656609783123141	-0.482917670112013	1.406820275838354	0.9333941166604069	-0.4108786861969609	1.375193685097548	0.5249932580958436	-0.4235941266876429	1.419969961210765	1.118575310246744	-0.2445590092084698	1.255369825392311	0.0559796808220942	-0.4395179268252624	1.494016951926015	1.454557283819474	-0.2991350708733217	1.433440991161488	1.525011863950029	-0.6341457406469693	1.46379336956303	1.465303835984599	-0.6901155787707827	1.360636344527448	1.488315873502629	-0.6686024613158221	1.2953319755507	1.159822291716354	-0.7348738887572375	1.29353512952086	1.149647771306973	-0.6459598267523886	1.391973876194198	1.421482759665237	-0.7027495434764506	1.320843504932221	1.253753607759626	-0.7084334342352308	1.385617035448856	1.318861335843559	-0.7124577458181207	1.318011554888254	1.064392239803182	-0.6936192561945496	1.35059794725231	0.8964970803882834	-0.7098317580826082	1.288784429668211	0.8887975498703012	-0.7064574124484737	1.477395686293218	1.033712002696023	-0.6249915607692935	1.317313776141085	1.063655319546822	-0.5385797734902796	1.410186531639218	0.1435796200468982	-0.5546114332055497	1.656680298381791	0.07681334795730313	-0.5625112587494657	1.567310298730785	0.05224661495423753	-0.6400717209354194	1.481936880220301	0.8148920894334625	-0.6685033863909207	1.606629255857949	0.7903011104690181	-0.6364271323806846	1.554633096929896	0.6819812669967156	-0.6841777110409289	1.563498683877471	0.3995308339710211	-0.6594201400337568	1.592380828586758	0.3067110427474014	-0.5933646563932752	1.529964365130104	0.2346860283604922	-0.6450090027165511	1.60302552626518	0.5869292030236668	-0.6857477870672988	1.637031106873443	0.5888318966888302	-0.5771971118834407	1.479659536757986	0.1333666079424505	-0.6242120712728735	1.508906428705862	0.139302320730168	-0.5238808700005777	1.406280284052219	0.9313595567234241	-0.5705323345665454	1.627835694934418	0.5841306252149445	-0.6306958041893196	1.298747977416833	1.148397133368059	-0.6849283258570561	1.479785451541243	0.1280927544529271	-0.5621710182015515	1.419049009953846	1.475285307258045	-0.6807842640746935	
85	3.8	1.499667055451201	1.464507193287352	-0.4975230124816103	1.392160068355858	1.54355647052202	-0.4720292590844501	1.497050481886334	1.50853141156348	-0.342602794872784	1.544984744553052	1.443888689330778	-0.3088009726926009	1.449509009505334	1.465316253945319	-0.2888184718524239	1.427854536421035	1.134837437052395	-0.1960559669036545	1.418080331478244	1.113393162769228	-0.282410293275401	1.483375789613684	1.400365166381811	-0.2685145509915172	1.437166638486415	1.227131525803813	-0.2356553840332665	1.49235705904515	1.29980170132054	-0.2467857328361988	1.500181769382392	1.070940267776337	-0.2420805519539709	1.64232761879249	0.9746303107683337	-0.2363838497213779	1.603889882226559	0.9265610779273125	-0.2262118687668433	1.483670477875208	1.036391744108786	-0.3596069414278134	1.323174831156115	1.064406963585333	-0.4458977985601737	1.183825134259676	0.05335675860319584	-0.4386682122252332	1.438441268135929	0.04923224446693638	-0.4594752333565175	1.367676988931116	0.01413663778461644	-0.3680046824519417	1.419878562955128	0.7777257477744047	-0.3420209001366586	1.491434454278414	0.6918005553161424	-0.4104197786205915	1.396456085763163	0.6274897630156498	-0.3507528840861202	1.333046294700534	0.3386483299364026	-0.3738961904595884	1.357361126312387	0.2436700883448487	-0.4387108603472471	1.310595372560676	0.1713131842200474	-0.372923332528234	1.374788606504422	0.5240316398764042	-0.3651099144306018	1.376779788375637	0.5268844244193034	-0.4788251097813884	1.265586961959132	0.06563373901980296	-0.3788234093209996	1.276613836592061	0.06661699047093433	-0.4829118552507207	1.412125125435391	0.9328168861256917	-0.4111117207120619	1.376786688598209	0.524761690689826	-0.4237962533802726	1.427512497103079	1.117724900642372	-0.24446884403536	1.255472304719385	0.05612471605845154	-0.4395209697547033	1.500259136469948	1.45392643197446	-0.29944017017402	1.439545248771164	1.524434933888535	-0.6344145255274388	1.469785593556291	1.464685603140466	-0.6904009281640726	1.366671799704756	1.487827372924169	-0.6688198272566814	1.299827730084903	1.159821572503985	-0.734912768701476	1.297798276804351	1.149789423566289	-0.6459875346534741	1.397752336743984	1.421028259571611	-0.7029805115191975	1.325769659097978	1.253659599886692	-0.7085599920671538	1.390886085823442	1.318426555939946	-0.7125492237801577	1.321849809824807	1.064323623521202	-0.6934103408884806	1.353535774117675	0.8962223530002609	-0.7092679969512533	1.29166313209301	0.8888863115882631	-0.7061795345401612	1.483166577446831	1.033128308649491	-0.6250734473935247	1.32299831852007	1.063263806002911	-0.5388887747749654	1.429312731498275	0.1361598633311378	-0.5546671301579404	1.677516073458917	0.07623846165359477	-0.5638238782638537	1.588571250303474	0.04967800796808467	-0.6412157850528089	1.487327075058352	0.8137536165360817	-0.6680981010474151	1.612030281992915	0.7892780674154684	-0.6359757017690439	1.559928455102517	0.680705879048443	-0.6830329684066405	1.574225320379971	0.3970675802133682	-0.6585623165551857	1.60620951039069	0.3048062226726657	-0.5931568707659595	1.545830561930275	0.2311902268827195	-0.6449798759055494	1.608260900190329	0.585616008604265	-0.6840714827197969	1.64235588970594	0.5881491954338939	-0.575561743557929	1.49874655672633	0.1282551458521775	-0.6245794196346759	1.528197047681988	0.134517503195797	-0.5243276626095619	1.411822072851816	0.9308542115741819	-0.5707668945421689	1.632972867861052	0.5833925444197331	-0.6290131242277978	1.30308355842874	1.148453664062725	-0.6849434500657809	1.49928186956707	0.122635328217196	-0.5625709303668966	1.425059985473188	1.474723345784147	-0.6810401256454917	
86	3.805	1.505806711433683	1.463823870778299	-0.4978475925740765	1.398410507576091	1.543003424911592	-0.4722912710048759	1.503338634023959	1.507858477581977	-0.3429278905553994	1.55121606838239	1.443159811669196	-0.3091525716654578	1.455778491157078	1.464702984091779	-0.2891121768746	1.435440232625925	1.133978310306017	-0.196023013904468	1.425595711418579	1.11243508354441	-0.2823447171303056	1.489872666057641	1.399652326404542	-0.2687709236182038	1.444349210729543	1.226276383927096	-0.2357058012980304	1.49925625435376	1.299138155604084	-0.2469841160700092	1.508471626217918	1.071181810668015	-0.2423972081623828	1.652152697518699	0.9771384463336485	-0.2373874063437119	1.614530902182566	0.9284648186465179	-0.2270405025442011	1.489070775938483	1.03563838936886	-0.3597144926673934	1.328746491125472	1.063948679212547	-0.4462273145546679	1.183924797274251	0.05365343493421896	-0.4386828414703812	1.438539847156999	0.04903929708789304	-0.4594001163985269	1.367675451091859	0.01406992491248176	-0.3679587314432237	1.423882062003206	0.7770476366047667	-0.3422650774847921	1.494641206961141	0.6905036387590688	-0.4107126537868426	1.399150444554665	0.6270204572706207	-0.3509773479898652	1.334078221181968	0.3385765242630682	-0.3740091576163313	1.358110869206343	0.2434759188986793	-0.4387496050433127	1.311050113629123	0.1713203477515135	-0.3729513151570533	1.376575758970673	0.5237540623556594	-0.3653168902868404	1.378511306736402	0.5265877548329172	-0.4790335235484302	1.265681925505466	0.06579306608556101	-0.3788193130643737	1.276784815069615	0.06667542021463979	-0.4829005823599014	1.417426116933931	0.9321991891937945	-0.4113536798641261	1.378494549975152	0.5245078804594003	-0.4239905732452861	1.43507721012663	1.116828978528188	-0.2444227163796688	1.255576953072929	0.05628227531464886	-0.4395182096145567	1.506508335331193	1.453251710790555	-0.2997646487256805	1.445672455896262	1.523817355429965	-0.6347048363952242	1.475806450830786	1.464029113470412	-0.6907070393021519	1.372733867427449	1.487295739686802	-0.6690634129280254	1.304364041184298	1.159775947135935	-0.7349288901570653	1.302132728960481	1.149889519354687	-0.6459921725714471	1.40355663557966	1.420531601403592	-0.703224805380823	1.330736346744468	1.253521368785372	-0.7086738845477344	1.396186817014485	1.317951549465315	-0.7126499824515096	1.325749355974458	1.064217393383651	-0.693184243266469	1.35654281945343	0.8959179169093172	-0.7086939681242187	1.294616046355341	0.8889397316136867	-0.7058726850095269	1.488943001448983	1.032456304315366	-0.6251824337161646	1.328701732655959	1.062834018082525	-0.5392187934685636	1.448482018323964	0.1289268280649663	-0.5549472009816565	1.698194481009714	0.0758465451787364	-0.5652179810612799	1.609762760220301	0.0473529822387482	-0.6425102454334138	1.492707649270287	0.8125074978530735	-0.6676347123183161	1.617372653051672	0.7880518677654285	-0.6353492690176167	1.565128860961169	0.6792744360355686	-0.6817708516035615	1.584824387108052	0.3945744541361805	-0.6576727872857535	1.619886563599845	0.3029479621618477	-0.5929561078830026	1.561634188957878	0.2278154391739274	-0.6450360555891054	1.613331173366097	0.5841140191767873	-0.6822392139807119	1.647414184785278	0.5872428276327128	-0.5737412521159558	1.517836945771844	0.1233453641610384	-0.6251232962380296	1.547436750861881	0.1298997126947916	-0.5249341981405777	1.417349271614941	0.9302854398847822	-0.5710097167727392	1.637872643184916	0.5824463586723964	-0.6271530985277658	1.307477338183527	1.1484677372946	-0.6849369474319829	1.518767518408562	0.1173624129203185	-0.5631534650265509	1.431098717779589	1.474121012591771	-0.6813191163623745	
87	3.81	1.511964269703692	1.463100037714369	-0.4981924122091985	1.404674306058877	1.542404842510813	-0.4725782831939654	1.5096344499234	1.507142560691244	-0.343272819563099	1.557455880617266	1.442389560260362	-0.3095222942435311	1.462054632482515	1.464043981774145	-0.2894288940515516	1.443051256641893	1.133070616207199	-0.1960331472846151	1.433133344062635	1.111434324542543	-0.2823231673216138	1.49638085506691	1.398894112694105	-0.2690513207364209	1.451551733256823	1.22537443144504	-0.2357921147032129	1.506171307318968	1.298429447367325	-0.2472152654691525	1.516758084097823	1.071376453508211	-0.2427625607715184	1.661917751947257	0.979596398810611	-0.2384503537639502	1.62511271968469	0.9303373059001038	-0.2279379182440045	1.4944954667061	1.034836656213984	-0.3598501426495221	1.334343885664648	1.0634646927276	-0.4465780146286883	1.184026992756816	0.05397188864875625	-0.4386889290773176	1.438638650449954	0.04883633772308515	-0.4593250444760651	1.367672935738337	0.01399913806839512	-0.3679117885541138	1.4279192635721	0.7763459134888602	-0.3425087744847126	1.497908505394824	0.6892062352322762	-0.4109921546753725	1.401923302827337	0.6265311812745662	-0.3511959566775034	1.335186149331136	0.3384930939551674	-0.3741152484369872	1.358910017275675	0.2432655540073991	-0.4387829573033817	1.311538111168943	0.171323993048409	-0.372973608167962	1.378473604963867	0.5234571037716282	-0.365514945408063	1.380365563412227	0.5262670768626208	-0.4792329008197638	1.265783405305476	0.06596194245757947	-0.3788095532938408	1.27695952354012	0.06674109761717495	-0.4828838086219165	1.422725748003688	0.9315417430188433	-0.4116043631195462	1.380324337344225	0.5242288657605747	-0.424177094622387	1.442665628265552	1.115888036509642	-0.2444208813826432	1.255684130486977	0.05645243027598312	-0.4395095984138299	1.512765165928541	1.452533574018494	-0.3001095409235983	1.451822537672211	1.523158681082609	-0.6350177881488632	1.481855687673403	1.463333717695225	-0.6910349454710689	1.378822339687872	1.486720492930111	-0.6693340732637311	1.308942337995935	1.159683489311069	-0.7349198070072993	1.306542703756512	1.149945503530958	-0.6459710952016676	1.409386419115199	1.419992002909481	-0.7034826423255414	1.335744774841673	1.253337204904786	-0.7087733190030355	1.401519767259547	1.317435389075839	-0.7127601415422578	1.329713388013554	1.064071241390218	-0.6929398323245285	1.359621447915155	0.8955812703724721	-0.708110210009014	1.29764533088309	0.8889553615434987	-0.7055337425449218	1.494725613421244	1.03169745264429	-0.625318525229669	1.334424504376361	1.062365052667847	-0.539569648207797	1.46766330209253	0.1219182025074123	-0.5554603954361583	1.7186919633066	0.07567832306399572	-0.5666766413962976	1.630865578936839	0.04531373305449519	-0.643946715711349	1.498094253026476	0.8111651786192591	-0.6671136903870241	1.622668524539219	0.7866365517900288	-0.6345347370143196	1.57025443895665	0.6777026279647607	-0.6803939854610339	1.595298792894982	0.3920754547475428	-0.656753763707407	1.6334005103662	0.3011598055234468	-0.5927567114574237	1.577362709473456	0.2245931762072116	-0.645176862747592	1.618258596487685	0.582441046398442	-0.6802555713911036	1.652215854966207	0.5861233849944397	-0.5717355556444808	1.536907997969162	0.1186761393494088	-0.6258452645406072	1.566594177311945	0.1254845769950026	-0.5256986756995232	1.422864161374064	0.9296537832184746	-0.5712606655711447	1.64255094901609	0.5813049856981536	-0.6251177123282583	1.311932394157808	1.148437110760818	-0.6849063978143408	1.538213773574903	0.1123128024582972	-0.5639201117750477	1.437164972984679	1.473477731453356	-0.6816221921511362	
